<svg width="100%" height="100%" viewBox="0 0 680 680" xmlns="http://www.w3.org/2000/svg" role="img">
<title>San Pellegrino — festive 4th of July styled beverage card</title>
<desc>Stylized illustration of San Pellegrino, lit by a warm pale-gold spotlight behind the glass fading into red and blue glow accents at the corners, against a deep navy background, framed by a red-white-blue gradient border.</desc>
<defs>
<linearGradient id="bgGrad" x1="0" y1="0" x2="0" y2="1">
<stop offset="0" stop-color="#0a0e1a"/>
<stop offset="1" stop-color="#040507"/>
</linearGradient>
<radialGradient id="glowRed" cx="0.1" cy="0.1" r="0.4">
<stop offset="0" stop-color="#c0273a" stop-opacity="0.4"/>
<stop offset="1" stop-color="#c0273a" stop-opacity="0"/>
</radialGradient>
<radialGradient id="glowBlue" cx="0.92" cy="0.92" r="0.42">
<stop offset="0" stop-color="#2451d6" stop-opacity="0.38"/>
<stop offset="1" stop-color="#2451d6" stop-opacity="0"/>
</radialGradient>
<linearGradient id="frameGrad" x1="0" y1="0" x2="1" y2="1">
<stop offset="0" stop-color="#c0273a"/>
<stop offset="0.5" stop-color="#f4f4f4"/>
<stop offset="1" stop-color="#2451d6"/>
</linearGradient>
<radialGradient id="spot" cx="0.5" cy="0.45" r="0.62">
<stop offset="0" stop-color="#fff4d6" stop-opacity="0.6"/>
<stop offset="0.35" stop-color="#ffdfa3" stop-opacity="0.3"/>
<stop offset="0.7" stop-color="#ffdfa3" stop-opacity="0.08"/>
<stop offset="1" stop-color="#ffdfa3" stop-opacity="0"/>
</radialGradient></defs>
<rect x="0" y="0" width="680" height="680" fill="url(#bgGrad)"/>
<rect x="0" y="0" width="680" height="680" fill="url(#glowRed)"/>
<rect x="0" y="0" width="680" height="680" fill="url(#glowBlue)"/>
<rect x="0" y="0" width="680" height="680" fill="url(#spot)"/>
<rect x="305" y="150" width="70" height="270" rx="18" fill="#0a1418" opacity="0.45"/>
<rect x="313" y="190" width="54" height="222" rx="16" fill="#bfe0ea"/>
<circle cx="332" cy="310" r="2.2" fill="#eaf6ff" opacity="0.8"/>
<circle cx="346" cy="280" r="1.8" fill="#eaf6ff" opacity="0.7"/>
<circle cx="338" cy="240" r="1.6" fill="#eaf6ff" opacity="0.7"/>
<circle cx="352" cy="300" r="1.6" fill="#eaf6ff" opacity="0.7"/>
<circle cx="330" cy="265" r="1.4" fill="#eaf6ff" opacity="0.6"/>
<rect x="322" y="118" width="36" height="40" fill="#0a1418" opacity="0.55"/>
<rect x="316" y="104" width="48" height="20" rx="5" fill="#9fb8c4"/>

<rect x="40" y="40" width="600" height="600" rx="18" fill="none" stroke="url(#frameGrad)" stroke-width="5"/>
<rect x="52" y="52" width="576" height="576" rx="14" fill="none" stroke="#ffffff" stroke-opacity="0.25" stroke-width="1.5"/>
</svg>