<svg width="100%" height="100%" viewBox="0 0 680 680" xmlns="http://www.w3.org/2000/svg" role="img">
<title>White Russian — festive 4th of July styled beverage card</title>
<desc>Stylized illustration of White Russian, lit by a warm pale-gold spotlight behind the glass fading into red and blue glow accents at the corners, against a deep navy background, framed by a red-white-blue gradient border.</desc>
<defs>
<linearGradient id="bgGrad" x1="0" y1="0" x2="0" y2="1">
<stop offset="0" stop-color="#0a0e1a"/>
<stop offset="1" stop-color="#040507"/>
</linearGradient>
<radialGradient id="glowRed" cx="0.1" cy="0.1" r="0.4">
<stop offset="0" stop-color="#c0273a" stop-opacity="0.4"/>
<stop offset="1" stop-color="#c0273a" stop-opacity="0"/>
</radialGradient>
<radialGradient id="glowBlue" cx="0.92" cy="0.92" r="0.42">
<stop offset="0" stop-color="#2451d6" stop-opacity="0.38"/>
<stop offset="1" stop-color="#2451d6" stop-opacity="0"/>
</radialGradient>
<linearGradient id="frameGrad" x1="0" y1="0" x2="1" y2="1">
<stop offset="0" stop-color="#c0273a"/>
<stop offset="0.5" stop-color="#f4f4f4"/>
<stop offset="1" stop-color="#2451d6"/>
</linearGradient>
<radialGradient id="spot" cx="0.5" cy="0.45" r="0.62">
<stop offset="0" stop-color="#fff4d6" stop-opacity="0.6"/>
<stop offset="0.35" stop-color="#ffdfa3" stop-opacity="0.3"/>
<stop offset="0.7" stop-color="#ffdfa3" stop-opacity="0.08"/>
<stop offset="1" stop-color="#ffdfa3" stop-opacity="0"/>
</radialGradient></defs>
<rect x="0" y="0" width="680" height="680" fill="url(#bgGrad)"/>
<rect x="0" y="0" width="680" height="680" fill="url(#glowRed)"/>
<rect x="0" y="0" width="680" height="680" fill="url(#glowBlue)"/>
<rect x="0" y="0" width="680" height="680" fill="url(#spot)"/>
<path d="M270 230 L410 230 L398 400 Q398 416 382 416 L298 416 Q282 416 282 400 Z" fill="#160f08" opacity="0.5"/>
<path d="M278 260 L402 260 L394 398 Q394 410 380 410 L300 410 Q286 410 286 398 Z" fill="#d8c39a"/>
<rect x="308" y="300" width="16" height="16" rx="2" fill="#ffffff" opacity="0.22"/>
<rect x="326" y="310" width="14" height="14" rx="2" fill="#ffffff" opacity="0.18"/>
<ellipse cx="340" cy="232" rx="70" ry="9" fill="#ffffff" opacity="0.06"/>

<rect x="40" y="40" width="600" height="600" rx="18" fill="none" stroke="url(#frameGrad)" stroke-width="5"/>
<rect x="52" y="52" width="576" height="576" rx="14" fill="none" stroke="#ffffff" stroke-opacity="0.25" stroke-width="1.5"/>
</svg>